<svg xmlns="http://www.w3.org/2000/svg" id="Ebene_1" data-name="Ebene 1" viewBox="0 0 690.99 606.04" width="690.99" height="606.04"><metadata><rdf:RDF xmlns:rdf="http://www.w3.org/1999/02/22-rdf-syntax-ns#" xmlns:dc="http://purl.org/dc/elements/1.1/"><rdf:Description><dc:creator>RealFaviconGenerator</dc:creator><dc:source>https://realfavicongenerator.net</dc:source></rdf:Description></rdf:RDF></metadata><defs><style>.cls-1{fill:#141934;}.cls-2{fill:#503584;}.cls-3{fill:#4f3583;}.cls-4{fill:#3b2e64;}.cls-5{fill:#352a5c;}.cls-6{fill:#e7b146;}.cls-7{fill:#fbf9f8;}.cls-8{fill:#e9b147;}.cls-9{fill:#3c2f65;}.cls-10{fill:#e8af47;}.cls-11,.cls-37{fill:#4e3583;}.cls-12{fill:#e8ae45;}.cls-13{fill:#312859;}.cls-14{fill:#e6ad45;}.cls-15{fill:#392d63;}.cls-16{fill:#33295b;}.cls-17{fill:#e7ad47;}.cls-18{fill:#e7ae46;}.cls-19{fill:#523985;}.cls-20{fill:#b38335;}.cls-21{fill:#2a244f;}.cls-22{fill:#be8b3a;}.cls-23{fill:#785d39;}.cls-24{fill:#463172;}.cls-25{fill:#151934;}.cls-26{fill:#141833;}.cls-27{fill:#161a35;}.cls-28{fill:#432e6e;}.cls-29{fill:#131833;}.cls-30{fill:#805ab6;}.cls-31{fill:#4a327c;}.cls-32{fill:#f7f6f7;}.cls-33{fill:#eceaf1;}.cls-34{fill:#48317c;}.cls-35{fill:#141832;}.cls-36{fill:#151933;}.cls-37{stroke:#4e3583;stroke-miterlimit:10;stroke-width:4px;}</style></defs><path class="cls-1" d="M283.55,13.05C210.32,23.88,119.23,54.16,110.31,139.74c-.54,4.46-1.82,6.29-6.14,7.7C83.39,154.19,67,175.54,65.8,196.63,64.36,221.88,76.13,242,98.69,252c3.41,1.51,2.82,3,1.87,5.46-10.45,25.43,7,51.54,32.85,56.89-8.39,7.48-24.87,15.3-18.09,28.43,12.38,24.15,25.47,47.86,40.82,70.27,2.08,3,1.65,4-1.62,5.46-67.46,30.33-120,88.88-139.92,160.48-.6,2.16-2.47,4.87,1.17,6.38,7.08.51,7.14.53,9.08-6,11.65-39.33,32.74-73,61.41-102.06,84.48-83,108.41-20.57,56-105.53,35.61,18.75,72.68,30.39,112.09,37.17,6.14,1,6,1.2,6.3,7.3,1.8,8.75-4.34,36.57,1.89,40.41,2.75,0,2.61-2.57,2.71-4.52,7.55-70.82,2.6-40.29-62.49-63.53-29.05-10.73-66.66-17.42-78.35-49.84-1.1-8.35,13.6-14.54,19.15-19.75,6.58-5.25,15.77-2.08,23-6.11,3.8-.95,4.43-.49,5.22,3.74-12-.31-11.86,11-2,8.08,5.77-1.93,10.54.56,10.48,6.42.08,10.07,6.77,17.08,9.24,26.37-16-4.05-30.32-12.61-44.48-20.92-2.31-1.47-4.69-3.46-7.72-1.46-5.11,22.74,84.16,44.61,103.36,49.33,52.17,11.88,39.45-2.8,39.19,51,1.33,8.12-7,29,6,28.48,8.41-6,3.44-21.28,5.54-30.64-.07-2.95.9-4.43,4.13-3.7,9.42,2.31,18.88,1.41,28.26,4A231.39,231.39,0,0,0,290,467.13c-26.72,37-53.19,84.45-56.32,128.1,8.51.86,8.46.84,10.75-7.24,1.75-5.59,26-87.92,31-68-.6,5.54-5.42,9.9-7.59,15-11.05,18.23,9.07,34.49,26.89,31.36,22.75.15,22.59,27.26,58.88,13.84,7.83-3.86,5.35,7.95,6,12.32-1,8.66,11.52,3.88,16.8,5,5.92-5-3.79-18.93,8.56-14.8,34,6.11,28.29-14.9,45.9-17.22,6.25.35,12.28-.45,17.89-3.36,7.18-4.87,9.36,23.81,11.65,28.87-.22,5.76,3.95,7.32,9,6.56,10.12,2.76-5.72-34.54-6.85-39.69-1.16-2.78-2.12-5.61-1.08-8.7,3-10.78-5.78-20.26-11.08-28.8-3.9-9.12,10.76-14.88.4-28.58a237.42,237.42,0,0,0-39.19-45.63c-4-2.78-5-6.5-4.12-11.29,2.78-14.35,4.29-28.9,6-43.42,1-12.86,42.54-20.36,53.54-40,4.24-12.3-9.93-4.67-13.59.19-8.09,6.21-17.05,10.82-26.16,15.54,5.1-13.63,10.49-26.95,15.77-40.36,2.85-6.41,3.76-6.57,10-3.19,7.06,4.79,26,15.94,24.76,24.83-6.44,23-26.82,33.77-47.07,43.33-2.94,1.42-5.46,3.18-6.06,6.75-2.09,13.77-5.38,27.53-5.94,41.46-.66,5.94,5.68,5.69,6.38.25,1.58-12.22,4.37-24.25,6-36.46,1.57-8.61,22.28-13.62,29.62-20.07-.89,5-40.06,60.9-19.7,50.16C445.08,422,508,473,496.19,479.38c-9,8.89-1.25,19.71-6.84,27.92-6.88,7.05-9.12,15.29-5.66,24.75.82,10.87-13,14.18.39,33.2,8.68,8.64-18.59,36.9,3.46,31.92,6-5.27,4.91-17.1,9.81-22.56,4.46,1.41,11.88,3.76,8.59,9.6-.75,4.3-3.84,8.21-2.21,12.91,7.12.55,11.71-.47,12.18-8.4,2-6,1.87-6.09,8-5.1,20.9,2.57,38.22-11,45.74-29.77,5.17-17.63,16.33,28.35,16.74,34.11.72,6-6.61,1.68-8.83,6.1,6.26-.16,22.51,3.64,19.23-6.85-3.2-18.41-9.27-35.73-19.75-51.33-1.4-24.47,2.3-43.94-23.19-58.79-2.26-1.42-2.22-2.8-1.5-4.92q11.88-35.24,23.61-70.52c.63-1.92,1.4-2.69,3.49-2.49,8.85,1.12,14.21-6.59,17.42-13.39,18.44-8.64,8-11.89,18.53-15.74,59.34-16.35,76.77-98.77,26.53-134.89-9.51-8.1,14.55-20.52,6-30C638.57,195,627.1,190.57,613.36,192c-14.17,1.33-1.51,26.68-15.05,27.31-63.15-3.72-101.61,75.27-63.39,124.45,1.14,1.61,2.42,2.88,1.36,5.3-4.18,7.25,2.76,12.54,3,19-3.31,7.9-.63,14.3,5.81,19.3,1.65,1.29,1.78,2.18,1.13,4.09-8.1,24.12-16,48.29-24.12,72.42a9.66,9.66,0,0,1-16.39,3.26,192.89,192.89,0,0,0-50.54-42.67c-4.1-2.37-4.26-4-2-7.72,12.63-20.22,22.93-41.66,33-63.24,8-18.86-17.64-30.62-30.27-39.47-2.34-1.29-2.78-2.06-.81-4.19,37-45,48.71-99.06,22.79-153.12-1.44-3.06-1.24-4.21,2-5.79,44.65-18.82,20.68-95.47-26.79-77.39-3.55,1.38-4.67.73-6.27-2.35C423.45,24.2,369.33,6,319.94,10.48"></path><path class="cls-2" d="M290.86,468c-26,33.2-42.3,71.14-54.16,111.23-1.54,5.23-4,10.22-3.82,15.87-36.09-.43-72.14-2.21-108.18-3.85C89.32,589.65,54,587.77,18.58,586a15.88,15.88,0,0,1-2.81-.66c4.91.66,6.58-1.8,7.92-6.39,10.12-34.74,27.83-65.25,51.94-92.21C100,459.49,129.1,439,162.44,424.33c9-4,9.18-3.81,3.51-12.13-8.35-12.23-16.28-24.73-23.64-37.58-.86-1.51-2.2-2.92-1.9-5.28,3,.4,5,2.52,7.44,3.75,29.64,15.22,61.05,25.26,93.57,32,5.69,1.18,11.41,2.2,17.15,3,2.52.37,3.54,1.44,3.38,3.89-.62,9.62.75,19.31-.87,28.9-.75,4.44,2,8.83.16,13.31-.36.86.38,1.63,1.38,1.54s1.17-.95,1.3-1.83c.35-2.23-.87-4.67.91-6.7a2.82,2.82,0,0,1,1.29,2.54c-.54,5.59,2.72,7.37,7.53,8.08,2.18.31,4.67.37,6.21,2.5a5.7,5.7,0,0,0,6,2.62C288.91,463.28,291.7,463.84,290.86,468Z"></path><path class="cls-3" d="M419.55,438.34c.08.65.12,1.32.23,2,.21,1.19-.63,3.11,1.32,3.2,1.67.08,2.41-1.48,2.67-3.09,2-12.76,4.13-25.51,6-38.3.35-2.35.93-4.13,3.26-5.06,10.67-4.26,20.24-10.49,30.61-16.18-4.46,8-8.89,16.1-13.39,24.12s-9,15.9-13.54,23.84c-1.05,1.84-1.78,4.15-.16,5.47,1.4,1.15,3.28-.85,4.11-1.92,3-3.9,5.94-2.76,9.38-.74a188,188,0,0,1,48.78,40.66c2,2.32,1.72,3.55-.14,5.76-5.79,6.87-8.07,14.77-5.34,23.6a4,4,0,0,1-1.37,4.78c-8.47,7.6-11.16,16.6-6.2,27.24.82,1.76.12,2.64-.9,3.89-7.18,8.72-6.81,19.43,1.08,27.9,1.75,1.89,2.43,3.22,1.45,6-2.93,8.26-6,16.52-8,25.7h8.13c-5.8,2-11.83.78-17.68.8-42.61.14-85.22-.15-127.84-.33a15.82,15.82,0,0,1-2.44-.37c7.1-3.14,14.25-2.66,21.44-.3l15.8,0c1.94-1.65,4.31-1.61,6.63-1.61q36.42-.06,72.83,0c2.32,0,4.7-.07,6.59,1.68,9.63.36,9.58.37,7.26-8.85-2.75-10.94-5.36-21.92-9.78-32.35a8.66,8.66,0,0,1-.24-7.17c1.78-4.17.42-8.12-1.32-12-2.82-6.26-7-11.71-10.78-17.34-1.38-2-1.61-3.34.29-5.45,5.81-6.47,6.26-13,1.79-20.55-5.79-9.75-13-18.45-20.47-26.93-5.9-6.71-12.38-12.91-18.61-19.34.06-.32.1-.74.35-.88A22.56,22.56,0,0,0,419.55,438.34Z"></path><path class="cls-4" d="M361,597l-21.44.3c-24.56-.36-49.11-.69-73.66-1.12-10.77-.19-21.53-.6-32.29-.91,7.64,1.59,8.36-3.69,9.91-9.16a365.12,365.12,0,0,1,12.31-37.36c4.91-12.17,9.39-24.51,15.81-36,6.91,5.52,7,6.32,2.58,13.83-1.62,2.72-2.82,5.74-4.75,8.19-9.92,12.64,1,29.17,17.78,30.31a17.7,17.7,0,0,0,3.49,0c10-1.33,17.3,2.18,24.65,9.44,9.33,9.21,21.81,9.4,34.15,5.68.95-.28,1.84-.77,2.77-1.1,7.53-2.69,8.1-2.35,8.55,5.86C361.1,589,361,593,361,597Z"></path><path class="cls-5" d="M511.89,596.92c1.32-4.26,2.76-8.49,3.92-12.79.57-2.1,1.37-3.4,3.74-2.71,10.74,3.12,20.8.84,29.92-4.84,10-6.24,16.68-15.46,20.34-26.77.49-1.5.44-3.93,2.09-4.14,2.18-.27,2.37,2.39,3.22,3.86,6.86,11.75,10.29,24.67,12.7,37.91.74,4.12-.53,6.45-5.23,5.68a6.06,6.06,0,0,0-3.5.5l4.94.5c-9.2,1.58-18.53,1.1-27.79,1.55C541.47,596.38,526.68,596.53,511.89,596.92Z"></path><path class="cls-6" d="M487.91,597.08c2.62-8.18,5.25-16.36,7.9-24.62,3.87,1.65,7.14,3.27,10.57,4.43,2.66.89,2.63,2.18,1.88,4.49-1.69,5.19-3,10.49-4.53,15.74Z"></path><path class="cls-7" d="M208.9,296.21c-14.07-16.66-23.1-35.65-26.38-57.28-1-6.3-.7-11.82,3.86-17.54,11-13.85,14.8-30.65,16.9-47.88,1.32-10.89,2.32-21.82,4.54-32.61,7.42-36,29.86-57.62,64.29-68a24.37,24.37,0,0,0,2.87-.84c1.08-.48,2.19-1.17,1.58-2.62a2,2,0,0,0-2.51-1.08c-1.79.37-3.6.66-5.37,1.1-39.52,9.69-60.92,35.94-67.93,75-2.41,13.41-3.39,27.08-5.86,40.49-2.95,16-9.86,30.06-23.09,40.23-9.73,7.48-20.71,10.55-32.89,8-15.57-3.27-25.14-17.88-20.92-31.95,1.86-6.21,5.58-11,12-13,7.53-2.34,14.05.53,17.2,7.81,1.13,2.6,2.42,4.65,5.45,3.5s2.65-4,2.06-6.44c-1.74-7.38-10.2-13.69-18.74-14.17-13.39-.75-25,9.21-27.19,22.84-4.09,25.21,17.71,43.13,41.83,40.68,8.24-.84,15.72-3.89,23.07-8,1.87,18.36,7.1,35.23,16.72,50.61,1.13,1.81,1.48,2.85-.64,4.37-12.07,8.6-24.74,15.56-39.89,17.09-19.51,2-37-8-42.2-24.64-3.15-10.13-2-19.65,4.83-28.17,2.64-3.3,1.53-5.45-3.2-6.94-17.74-5.61-29.51-17-33.64-35.46-6-26.73,13.5-54.38,40.67-58.2,8.8-1.24,17.26-.82,25.28,3.33,2.44,1.26,4.57,1.22,6-1.33s-.41-4.11-2.25-5.34a34.45,34.45,0,0,0-21.29-5.85c-5,.28-5.79-1.5-5-5.86,5-28.94,18.65-52.85,41.66-71.14,18.24-14.48,39.22-23.78,61.18-31C261,23.09,301.12,16,342.31,18.51c38.41,2.3,71.09,16.75,93.05,50.18,2.82,4.29,4.89,9.08,7.22,13.67,1.57,3.08,3.69,5.12,7.07,2.8,10.8-7.42,21.72-7.23,32.1.15,11.06,7.85,15.26,19.2,13,32.44-2.4,14.18-10.93,23.58-24.52,28.26-5.64,1.93-6.32,3.34-3.47,8.66,26.38,49.25,19.46,96-11.36,140.43-16.56,23.9-39,40.75-66.22,51-3.35,1.26-4.94,3.63-6.09,6.72-4.38,11.68-8.9,23.31-13.2,35-.95,2.59-2.12,4-5,3.13-3.33-1.06-6.68-.56-9.86.24-3,.75-4-.27-5-2.91-3.6-10.37-7.55-20.61-11.06-31-1.51-4.46-4.14-6.1-8.79-6.44-30.69-2.23-60.18-8.84-87-24.82-6.88-4.1-13.16-9-19.49-13.91-.83-1.85,0-3.53.59-5.22s1.44-3.62.61-5.27c-2.75-5.52-.61-10.18,2.12-14.84,1.11-2.17,3.2-2.59,5.32-3.21,6.14-1.8,8.51-7.85,5.44-13.44-1.1-2-3-3.65-2.87-6.22.24-2.16.63-4.29.93-6.43.54-3.86,2.39-6.42,6.43-7.23a13.83,13.83,0,0,0,8.48-5.8c2.47-3.43,5.22-3.33,8.68-1.61A66.21,66.21,0,0,0,283.82,250c17.41,1.37,33-3.29,46.29-14.64,13.83-11.79,21.77-26.92,23.07-45,1.26-17.67-3.86-33.56-15.62-47.07-12-13.73-26.94-21.91-45.18-22.51-20.24-.66-37.69,6.48-50.65,22.42-17.78,21.86-20.4,45.94-8.89,71.54,1.72,3.82,1.32,6.2-1.86,9.06-8.77,7.87-8.88,16.87-.2,24.33,4.26,3.66,3.28,7.52,2.14,11.77a8.34,8.34,0,0,1-5.37,6.42C221.43,269,220,274,223,280.14c.79,1.61,1.93,3.1,1.58,5.07C221.66,293.49,217.69,296.27,208.9,296.21Z"></path><path class="cls-7" d="M662.91,295.3c.11,29.95-20.84,58.11-49.24,66.3-2.61.75-4.39.6-6.64-1.41-17.33-15.48-37.32-23.35-60.85-20.09-3.08.42-4.21-1.25-5.44-3.2-15-23.73-17-48.33-3.71-73.29,14.79-27.68,46-41.33,75.26-33.69A68,68,0,0,1,662.91,295.3Z"></path><path class="cls-7" d="M429.45,511.28c-12.87-.11-15.34,1.54-19.95,12.89-3,7.46-14.35,10.25-23,5.59-2-1.09-3.89-2.55-5.86-3.79-10.89-6.77-22.44-6.07-32.32,2.12-5.92,4.91-12.5,6.65-20,4.95-5.17-1.18-9-3.92-11.24-8.92-3.75-8.47-7.95-10.92-17.24-10.06-4.15.38-8.24,1-12.37-.21-8.07-2.35-11-9-6.77-16.17a210.7,210.7,0,0,1,46.1-54.75c2.46-2.07,3.92-2.89,5.64.8a19.4,19.4,0,0,0,7,7.68c2.49,1.67,2.56,3,1.29,5.57a352.9,352.9,0,0,0-14.33,34c-.56,1.56-1,3.16-1.5,4.75-.53,1.76-.44,3.39,1.52,4.18,2.12.85,3.58-.14,4.4-2.06,2.08-4.9,4-9.87,6.15-14.72,3.44-7.75,7.08-15.41,10.54-23.14,1-2.26,2-3.26,4.86-2.47,6.36,1.77,12.87,1.89,19-.94,2.52-1.15,3.2.32,4.13,2,7.06,12.63,14.61,25,20.76,38.12.5,1.06,1,2.11,1.6,3.11,1.07,1.79,1.81,4.4,4.73,3.06s1.71-3.55.8-5.52c-4-8.6-7.9-17.26-12.17-25.72-2.92-5.79-6.28-11.36-9.67-16.89-1.06-1.74-1.32-2.67.47-4s3.63-2.75,4.52-4.59c2.6-5.36,4.95-4.35,8.91-1.06a253.23,253.23,0,0,1,43.69,47.12c2.8,3.91,7,7.87,4,13.45C440.12,511.45,434.48,511.57,429.45,511.28Z"></path><path class="cls-3" d="M289.81,411.66c.64-6.7,1.17-13.32,1.18-20,0-5-2.11-7.77-6.94-8.72-21.49-4.23-42.94-8.52-64.25-13.66-10.63-2.56-18.46-6.78-22.21-17.67-2.09-6.09-5.58-11.72-8.61-17.46-1.42-2.69-.89-4.25,1.85-5.5a68.57,68.57,0,0,0,16.07-10.84c3.72-3.18,7.8-2.5,11.27.5a151.37,151.37,0,0,0,29.21,19.92A188.74,188.74,0,0,0,307,357.08c6.57,1,13.13,2.22,19.79,2.07,2.89-.07,4.25,1.4,5.12,3.79,3.72,10.15,7.37,20.32,11.21,30.42.76,2-.18,2.67-1.47,3.58a31.52,31.52,0,0,0-13.79,24.25c-.17,2.09-.91,3.18-3,2.86-11-1.63-22-3-32.94-5.12C287.87,418.16,291,414,289.81,411.66Z"></path><path class="cls-7" d="M430.89,555.2c-7.56-.42-14,2-18.42,9.79-4.79,8.45-18.23,10.89-29.77,6.41-3.71-1.44-7.36-3.2-11.21-4.06-6.89-1.55-13.52,0-19.9,2.81-8,3.56-16.26,4.72-24.7,1.48a20.3,20.3,0,0,1-9.84-7.37c-4-5.82-9.63-7.73-16.39-7.62-5.12.08-10.26,1-15.38-.47-10.66-3-13.3-9-8-18.58l.49-.86c8.17-14.45,8.17-14.44,24.7-13.66,2.86.13,5.29,1,6.24,4,4.59,14.21,26.42,22,41.22,10.66,11-8.42,19.88-8.69,31.45-1.17,15.15,9.84,30.35,4.1,37.72-12.52a4.89,4.89,0,0,1,3.5-3.16c4.75-1.16,9.61,0,14.38-.82,1.12-.19,1.58,1,2.14,1.85,3.51,5.05,7.17,10,10.48,15.19,4.11,6.43,2.37,12.21-4.4,15.71C441.52,554.69,437.91,555.33,430.89,555.2Z"></path><path class="cls-7" d="M508.46,500.92c-1.9-1.05-5.15,2-6.76-1.28a12.09,12.09,0,0,1,.53-12c4.64-7.72,12.28-9.84,20.48-10.42,26.3-1.88,47.55,19.3,45.11,45.34A82.22,82.22,0,0,1,557,557.1c-8.47,14.33-21.81,19.67-37.85,15.22a113,113,0,0,1-20.77-8.39,21.11,21.11,0,0,1-7.47-5.73c-3.26-4.21-3.81-9.27-1.34-13.53,2.72-4.68,7.28-5.81,12.06-5.26,4.59.53,9.09,1.94,13.59,3.08,2.35.6,4.88,1.52,5.77-1.68.83-3-1.61-3.94-3.9-4.77-6.27-2.3-12.59-4.56-19.39-4-2.78.24-3.9-1.14-4.86-3.23-3.27-7.08.6-16,8.34-18.73,5.65-2,11.48-1.68,17.26-.65a77.86,77.86,0,0,1,8.23,2c2.16.63,4.17.63,5-1.7.93-2.55-.65-3.92-2.92-4.92A55.62,55.62,0,0,0,508.46,500.92Z"></path><path class="cls-8" d="M279.86,460.36c-1.29-.21-2.6-.38-3.89-.63-10.42-2.06-10.42-2.06-11.14-12.49.9-12.93,1.15-25.89,1.26-38.85,0-3.18-1.87-3.7-4.39-4.19-19.74-3.84-39.4-8-58.62-14-22.58-7-44.66-15.15-64.91-27.67a16.3,16.3,0,0,1-6.58-7.1c-2.8-5.82-6.26-11.32-8.62-17.36.31-2.33,1.94-1.07,2.9-.89,2.46.47,5,1,7.33.13,3-1.11,3.27.74,3.58,2.79,12.36,12,27.92,18.52,43.49,24.77,31.33,12.59,64.13,19.8,97.34,25.24,3.42.56,5.41,1.32,5.2,5.47C281.69,417.16,280.82,438.76,279.86,460.36Z"></path><path class="cls-9" d="M462.87,597.07,376.82,597c-.16-5.13.62-10.28-.56-15.41-.63-2.78,1.1-2.61,3-1.91a42.31,42.31,0,0,0,16.14,2.47c10.7-.21,19.42-3.71,24.9-13.55a8.43,8.43,0,0,1,8.32-4.52c7.94.53,15.6-.32,22.52-4.74,3-1.91,3.17,1.16,3.43,2.45,2.06,9.91,5.78,19.39,7.33,29.42C462.16,593.17,462.53,595.12,462.87,597.07Z"></path><path class="cls-10" d="M419.55,438.34c.42,6.1-4.5,7-8.54,8.75-3.67-2.7-6.22-5.28-5.23-10.9,2.74-15.67,4.68-31.48,6.66-47.27.46-3.61,2-5.48,5.23-6.88,13.45-5.77,26.44-12.38,38.1-21.37a75.63,75.63,0,0,0,10.1-9.57c4.49-.49,8.11-3.57,12.57-4.14.12,0,.28.14.4.25s.21.5,0,.85c-3,6.67-6,13.32-8.85,20-.93,2.13-2.73,3.31-4.44,4.59A160.06,160.06,0,0,1,433,391.84c-5.09,2.2-7.22,5.22-7.9,10.56C423.56,414.42,421.44,426.36,419.55,438.34Z"></path><path class="cls-11" d="M428.36,335.45c-1.23,7.29-5.09,13.39-7.31,20.12-1.86,5.67-4.2,11.19-6.15,16.84-.6,1.72-1.45,3.12-3.1,3.64-5.47,1.71-7.12,6-7.72,11-.23,2-.54,3.95-.95,5.9-.8,3.75-1.2,7.42-5.17,9.9-2.93,1.84-3.14,6.4-6.41,9.33-3.13-7-7.54-12.51-13.85-16.25-1.65-1-1-2.14-.54-3.41q7-17.88,14-35.78c.55-1.4,1.09-2.9,2.64-3.46A160.33,160.33,0,0,0,428.36,335.45Z"></path><path class="cls-12" d="M360.44,450.19a25,25,0,0,1-25.36-25.25c0-13.83,11.64-25.73,25.26-25.82,14-.1,25.3,11.44,25.36,26C385.76,438.68,374.26,450.09,360.44,450.19Z"></path><path class="cls-10" d="M569,396.13c-8,24-16.08,47.94-23.89,72-1.13,3.5-2.58,4.11-5.58,2.7a8.45,8.45,0,0,0-1.43-.43c-8.73-2.25-8.74-2.25-5.82-11.08q10.74-32.44,21.51-64.86c.52-1.54.69-3.28,2-4.46C560.81,390.74,565.74,391.63,569,396.13Z"></path><path class="cls-13" d="M164.86,322.7c1.56,1,3.1-.85,4.46-1.46,6.39-2.92,13,3.18,12.35,10.11-.52,5.51,2.18,9.45,3.93,13.92s3.93,8.77,5.9,13.15c.11.26,0,.62-.09,1.41-7.36-1.62-14-5-20.68-7.92a193.53,193.53,0,0,1-27.49-15c-1.55-1-3.08-2-5-1.82-.28-3.05,2.41-4,4.18-5.24,2.84-1.95,3.69-3.82,1.86-6.9-.9-1.52-1-1-.74-2.86a12.06,12.06,0,0,1,5.53-1.43c2.39,1.26,1.66.09,2.07,2.37.3,1.65-.36,1.1.52,2.57,3,5,2.48-.72,5.57-5.59C157.63,317.34,164.11,323.16,164.86,322.7Z"></path><path class="cls-14" d="M552,360.92c-3.72.81-7,.08-8.31-4.41s.92-8,5.58-8.48c19.5-1.88,36.15,4.89,51.07,17,3.5,2.83,2.68,5.88.54,8.7-2.28,3-5.27,3.71-8.71,1.3C580.16,366.61,567,361.48,552,360.92Z"></path><path class="cls-15" d="M290.86,468c-.22-3.12-3.36-3.33-5-5,2.53-2.28,3.08-5.12,3.11-8.48.08-8.1.62-16.19,1-24.29.06-1.54,0-3.36,2.29-2.81,10.32,2.47,20.9,2.84,31.37,4.13a17.65,17.65,0,0,1,3.31,1.23A224.15,224.15,0,0,0,290.86,468Z"></path><path class="cls-16" d="M465,344.91c-3,.77-5.06,3.1-7.33,4.94A128.61,128.61,0,0,1,424.57,369L441,329.07C450.64,331.82,459.78,335.41,465,344.91Z"></path><path class="cls-17" d="M556.71,385.34c-1.34-1.41-2.52-2.77-4.66-3.37-3-.84-4.86-3.44-5.84-6.35-1.14-3.38.94-6.48,4.43-6.48,13,0,24.61,4.46,35.54,11.11,2.64,1.61,2.25,4,1.45,6.11-1.22,3.3-4,4.78-7.43,4.8-1.42,0-2.85-.73-4.28-1.14C569.14,390,563,387.27,556.71,385.34Z"></path><path class="cls-18" d="M619.21,200.18A25.38,25.38,0,0,1,629.42,202c4,1.53,7.85,3.57,10.06,7.07,2.74,4.34-2.18,7-3.77,10.22-4,8.16-4.3,8-12.88,4.81-.15-.06-.31-.1-.46-.17-3.42-1.51-8.73-.91-10.11-4.08s.52-7.41,1-11.19a29.59,29.59,0,0,0,.61-3.42C613.89,201.29,615.47,199.26,619.21,200.18Z"></path><path class="cls-19" d="M205.21,310.36c.66,1.76.32,2.58-.34,3.08-5.13,3.85-9.4,8.86-15.72,11.09-2.16.76-3.13.05-3.86-1.7-1.82-4.44-3.59-8.91-5.42-13.35-.78-1.9-.12-3.1,1.54-4.12,4.37-2.71,8.73-5.44,13-8.3,1.7-1.14,3-1.09,4.33.43C202.24,301.45,206,305.28,205.21,310.36Z"></path><path class="cls-20" d="M465,344.91c-6.53-7.56-15.36-11.61-24.08-15.84,3.55-10.88,4.46-11.21,14-5.67a91.16,91.16,0,0,1,22.85,19.09c1.44,1.63,3.13,3.26,1,5.57-2.72.33-5.09,1.64-7.47,2.86-1.85.94-3.63,1.47-5.52.18C466.62,348.9,467.74,346.64,465,344.91Z"></path><path class="cls-21" d="M228,287.26a41.92,41.92,0,0,1-2,4.54c-1.3,2.22-2,4-.38,6.72,2.7,4.69-.28,9.18-1.84,13.61-2-2.81-4.06-.29-5.35.44-4,2.26-6.76,1-9.52-1.93-2.93-3.12-2.56-6.53-1-10,.68-1.47,2-2.67,1-4.46,3.09-1.36,5.6-4.13,9.54-3.38,1.95.37,2.09-1.77,2.81-3,.94-1.56,1.77-3.19,2.64-4.79.72-1.11,1-2.9,3.05-1.88S228.68,285.64,228,287.26Z"></path><path class="cls-22" d="M159,314.25c2.44,2.35,3.58,5.91,5.83,8.45,1,1.15-18.18,5.62-19.05,6.19a43,43,0,0,0-7.61,6.23c-1.73,1.3-1.55,3.14-1.42,5-.6-.68-1.6-2-1.73-1.94-4.08,2.46-8.08.09-12.08-.09-2.23-2.63-.58-4.2.68-5.6C127.1,325.17,146.79,314.6,159,314.25Z"></path><path class="cls-23" d="M556.71,385.34c2.31-.27,4.65-.49,6.83.53A56.35,56.35,0,0,0,575.92,390c-5-1-5.81,2.73-6.93,6.11L555.81,390Z"></path><path class="cls-22" d="M162.69,324c-1.28-2-2.38-7.77-3.66-9.73,1.67-.68,3.32-1.42,5-2,7-2.53,7.84-2.08,10.18,5.63C179.94,325.35,166.18,322,162.69,324Z"></path><path class="cls-24" d="M399.91,421.42c-.61,3.37-1.23,7-1.92,10.53-.22,1.11.44,3.13-1.74,2.69-1.58-.32-3.36-1.2-3.24-3.25a63.22,63.22,0,0,1,1.12-9.33c.45-2.13,2.48-3.27,4.45-3.51C400.3,418.34,399.66,420.17,399.91,421.42Z"></path><path class="cls-25" d="M231.79,260a16.92,16.92,0,0,1,.55-3.44c1.33-3.46.27-5.39-2.85-7.63-8.8-6.29-8.61-19.73.46-26.08,3.51-2.45,3.14-4.05,1.57-7.31-18.75-38.88,2.35-84.57,43.5-94.5,35.91-8.66,73.33,16.81,78.88,53.68,5.43,36.14-17.66,69.42-52.7,76-15.37,2.88-29.86.18-43.43-7.32-2.68-1.48-3.74-1.25-5.25,1.35a13.6,13.6,0,0,1-10.42,7c-3,.31-3.94,1.49-4.33,4.16s-1.21,5.51-1.85,8.26c-.69.9-.66,2.67-2.59,2a2.53,2.53,0,0,1-1.9-2.91C231.52,262.15,231.25,261,231.79,260Z"></path><path class="cls-26" d="M433.16,163.11a3.93,3.93,0,0,1-2.37,3.71c-2.06,1-3.78.2-5.45-1.2-5.12-4.26-10.85-6.2-17.59-4.7-6.46,1.43-11,5.32-14.27,10.8-1.68,2.81-3.46,5.37-7,3.19-3.17-2-2-4.82-.59-7.47,8.56-16.16,29.89-21,43.44-9.75C431.13,159.17,432.92,160.71,433.16,163.11Z"></path><path class="cls-27" d="M436.42,104a21,21,0,0,1,.64-3.58,3.41,3.41,0,0,1,4.19-2.62c2,.39,2.71,1.8,2.63,3.66a20.37,20.37,0,0,0,2,9.67c3.8,8.15,11.22,10.49,18.76,5.75,2-1.24,3.69-1.69,5.35,0,2,2,.84,4-.64,5.74-6,7.21-19.52,6.51-26.63-1.42C438.52,116.62,436.52,111.1,436.42,104Z"></path><path class="cls-28" d="M231.79,260c.86,1.91-1.66,7.15,4.13,4.19-.23,1.73,1.1,2.57,2,3.71,5.49,6.77,2.28,15.84-6.28,17.38a5.63,5.63,0,0,0-3.64,2c-.29-2.79-1-4.86-4.13-2.18.53-2-1.36-2.84-2.19-4.16-3.78-6-1.45-13.8,5.25-15.83A6.36,6.36,0,0,0,231.79,260Z"></path><path class="cls-29" d="M361,408.72c8.43.17,15.75,8,15.52,16.5s-7.88,16.1-16.19,15.79A15.71,15.71,0,0,1,345,424.61C345.21,415.82,352.53,408.55,361,408.72Z"></path><path class="cls-30" d="M219,305.07c-.32,2.42-1.59,4.17-4.4,4.17-2.35,0-3.84-1.26-3.54-3.72s1.45-4.48,4.35-4.47C217.88,301.05,219,302.52,219,305.07Z"></path><path class="cls-31" d="M243,222.17c.12-4.78-3.48-8-5.28-11.94-15.37-33.65,4.14-73.38,39.79-81.52,23.08-5.28,49.56,6.6,61.11,27.51,5.28,9.56,8.72,19.47,8.16,30.37C345.07,220.17,320,244.53,288,243.92a52.74,52.74,0,0,1-32.73-11.76c-1-.83-2.13-3.46-4.17-1A28.09,28.09,0,0,0,243,222.17Z"></path><path class="cls-32" d="M243,222.17c5.1.81,7.66,3.91,8.06,9-2.42,2.16-3.54,5.18-5.2,7.85-2.82,4.57-8.27,5.65-12,2.6-4-3.32-3.28-10.45,1.88-11.71C240.45,228.72,241.58,225.64,243,222.17Z"></path><path class="cls-33" d="M234.12,275.09c-.39,2.12-1.37,3.84-3.78,3.75a3.33,3.33,0,0,1-3.49-3.44c0-2.22,1.22-4,3.48-4S234,272.69,234.12,275.09Z"></path><path class="cls-34" d="M360.63,435.14A11.1,11.1,0,0,1,350,424.75c-.1-5.4,5.45-10.74,11.06-10.63,5.1.1,10,5.69,9.88,11.19A9.82,9.82,0,0,1,360.63,435.14Z"></path><path class="cls-35" d="M290.06,235.17c-26.78,1.7-48.38-22.29-49.26-47.77-1-28,22.35-51.6,49.38-51.05,25.4.51,47.88,19.55,48.37,49.61C339,212.52,315.42,236.76,290.06,235.17Z"></path><path class="cls-7" d="M334.2,186c.12,24.55-19.83,45.37-43.67,45.58-25.38.23-45.51-20-45.59-45.72-.08-24.51,19.94-44.83,44.23-44.91C314.21,140.85,334.07,160.73,334.2,186Z"></path><path class="cls-36" d="M303.89,188.69c0,3.83.06,7.66,0,11.49-.11,5-3,8.15-7.45,8.24s-7.34-2.75-7.5-7.59q-.41-12-.21-24c.09-5,2.88-7.79,7.18-8,4.54-.17,7.52,2.6,7.85,7.8.25,4,.05,8,.05,12Z"></path><line class="cls-37" x1="607.43" y1="264.06" x2="632.92" y2="319.73"></line><line class="cls-37" x1="604.16" y1="266.17" x2="557.99" y2="298.22"></line><circle class="cls-2" cx="606.97" cy="265.85" r="14.38"></circle><circle class="cls-2" cx="631.61" cy="318.66" r="14.38"></circle><circle class="cls-2" cx="557.92" cy="298.6" r="14.38"></circle><style>@media (prefers-color-scheme: light) { :root { filter: none; } }
@media (prefers-color-scheme: dark) { :root { filter: none; } }
</style></svg>