<svg id="Ebene_1" data-name="Ebene 1" xmlns="http://www.w3.org/2000/svg" viewBox="0 0 2834.65 2834.65"><defs><style>.cls-1{fill:#151934;}.cls-2{fill:#513784;}.cls-3{fill:#eab34d;}.cls-4{fill:#fcfbfc;}.cls-5{fill:#d5ccda;}.cls-6{fill:none;stroke:#513784;stroke-miterlimit:10;stroke-width:21px;}.cls-7{fill:#ba9dc6;}</style></defs><path class="cls-1" d="M1267.45,372.27c-263.63,39-591.55,148-623.66,456.08-1.95,16.06-6.56,22.65-22.11,27.72-74.81,24.3-133.81,101.16-138.13,177.09-5.18,90.9,37.19,163.33,118.4,199.33,12.28,5.43,10.16,10.8,6.74,19.65C571.07,1343.69,633.89,1437.69,727,1457c-30.21,26.93-89.54,55.08-65.13,102.35,44.57,86.94,91.69,172.29,146.95,253,7.49,10.8,5.94,14.4-5.83,19.65-242.85,109.19-432,320-503.71,577.73-2.16,7.78-8.89,17.53,4.21,23,25.49,1.84,25.71,1.91,32.69-21.6,41.94-141.59,117.86-262.8,221.08-367.42,304.12-298.8,390.27-74,201.6-379.9,128.19,67.5,261.64,109.4,403.52,133.81,22.1,3.6,21.6,4.32,22.68,26.28,6.48,31.5-15.62,131.65,6.8,145.47,9.9,0,9.4-9.25,9.76-16.27,27.18-255,9.36-145-225-228.71-104.58-38.62-240-62.71-282.06-179.42-4-30.06,49-52.34,68.94-71.1,23.68-18.9,56.77-7.49,82.8-22,13.68-3.42,15.94-1.76,18.79,13.47-43.2-1.12-42.7,39.6-7.2,29.09,20.77-7,37.94,2,37.73,23.11.28,36.25,24.37,61.49,33.26,94.93-57.6-14.58-109.15-45.4-160.13-75.31-8.31-5.29-16.88-12.46-27.79-5.26-18.4,81.87,303,160.6,372.1,177.59,187.81,42.77,142-10.08,141.08,183.6,4.79,29.23-25.2,104.4,21.6,102.53,30.28-21.6,12.38-76.61,19.94-110.31-.25-10.62,3.24-15.94,14.87-13.32,33.91,8.32,68,5.08,101.74,14.4A832.75,832.75,0,0,0,1290.67,2007c-96.19,133.2-191.48,304-202.75,461.16,30.63,3.09,30.45,3,38.7-26.07,6.3-20.12,93.6-316.51,111.6-244.8-2.16,19.95-19.51,35.64-27.33,54-39.78,65.63,32.66,124.17,96.81,112.9,81.9.54,81.32,98.13,212,49.82,28.18-13.89,19.26,28.62,21.6,44.35-3.6,31.18,41.47,14,60.48,18,21.31-18-13.65-68.14,30.81-53.28,122.4,22,101.85-53.64,165.24-62,22.5,1.26,44.21-1.62,64.41-12.09,25.84-17.54,33.69,85.71,41.94,103.93-.8,20.73,14.22,26.35,32.4,23.61,36.43,9.94-20.6-124.34-24.66-142.88-4.18-10-7.64-20.2-3.89-31.32,10.8-38.81-20.81-72.94-39.89-103.68-14-32.83,38.74-53.57,1.44-102.89a855,855,0,0,0-141.08-164.27c-14.4-10-18-23.4-14.84-40.64,10-51.66,15.45-104,21.6-156.31,3.6-46.3,153.15-73.3,192.75-144,15.26-44.28-35.75-16.81-48.93.68-29.12,22.36-61.38,39-94.17,56,18.36-49.07,37.76-97,56.77-145.3,10.26-23.08,13.54-23.65,36-11.48,25.42,17.24,93.6,57.38,89.14,89.38-23.19,82.8-96.56,121.58-169.46,156-10.58,5.11-19.65,11.45-21.81,24.3-7.53,49.57-19.37,99.11-21.39,149.26-2.37,21.38,20.45,20.48,23,.9,5.69-44,15.73-87.3,21.6-131.26,5.65-31,80.21-49,106.63-72.25-3.2,18-144.21,219.24-70.92,180.58,14.55-42.77,241.06,140.83,198.54,163.8-32.4,32-4.5,71-24.62,100.51-24.77,25.38-32.83,55-20.38,89.1,3,39.13-46.8,51,1.41,119.52,31.25,31.1-66.93,132.84,12.45,114.91,21.6-19,17.68-61.56,35.32-81.22,16.06,5.08,42.77,13.54,30.92,34.56-2.7,15.48-13.82,29.56-8,46.48,25.63,2,42.15-1.69,43.85-30.24,7.2-21.6,6.73-21.92,28.8-18.36,75.24,9.25,137.59-39.6,164.66-107.17,18.61-63.47,58.79,102.06,60.26,122.79,2.6,21.6-23.79,6-31.78,22,22.53-.57,81,13.11,69.22-24.66-11.52-66.27-33.37-128.62-71.1-184.78-5-88.1,8.28-158.19-83.48-211.65-8.14-5.11-8-10.08-5.4-17.71q42.76-126.87,85-253.87c2.26-6.91,5-9.69,12.56-9,31.86,4,51.16-23.72,62.71-48.2,66.39-31.1,28.8-42.8,66.71-56.66,213.62-58.86,276.37-355.58,95.51-485.61-34.24-29.16,52.38-73.87,21.6-108-33.7-36.5-75-52.45-124.45-47.3-51,4.79-5.44,96-54.18,98.31-227.34-13.39-365.8,271-228.21,448,4.11,5.8,8.71,10.37,4.9,19.08-15.05,26.1,9.93,45.15,10.8,68.4-11.92,28.44-2.27,51.48,20.91,69.48,5.94,4.65,6.41,7.85,4.07,14.73-29.16,86.83-57.6,173.84-86.83,260.71a34.77,34.77,0,0,1-59,11.74,694.65,694.65,0,0,0-182-153.62c-14.76-8.53-15.33-14.4-7.2-27.79,45.47-72.79,82.55-150,118.8-227.66,28.8-67.9-63.5-110.23-109-142.09-8.42-4.65-10-7.42-2.92-15.09,133.2-162,175.36-356.61,82-551.23-5.19-11-4.47-15.16,7.2-20.84,160.74-67.76,74.45-343.7-96.45-278.61-12.78,5-16.81,2.63-22.57-8.46-84.13-169.16-279-234.68-456.77-218.55"/><path class="cls-2" d="M1293.77,2010.09c-93.6,119.52-152.28,256.1-195,400.43-5.54,18.82-14.4,36.79-13.75,57.13-129.93-1.55-259.71-8-389.45-13.86-127.37-5.76-254.52-12.53-382-18.9a57.47,57.47,0,0,1-10.12-2.38c17.68,2.38,23.69-6.48,28.51-23,36.44-125.07,100.19-234.9,187-332,87.73-98.1,192.49-171.86,312.51-224.67,32.4-14.4,33-13.72,12.64-43.67-30.06-44-58.61-89-85.1-135.29-3.1-5.44-7.92-10.51-6.84-19,10.8,1.44,18,9.07,26.78,13.5,106.7,54.79,219.78,90.94,336.85,115.2,20.49,4.25,41.08,7.92,61.74,10.8,9.07,1.33,12.75,5.19,12.17,14-2.23,34.63,2.7,69.51-3.13,104-2.7,16,7.2,31.78.57,47.91-1.29,3.1,1.37,5.87,5,5.55s4.21-3.42,4.68-6.59c1.26-8-3.13-16.81,3.28-24.12a10.13,10.13,0,0,1,4.64,9.14c-1.94,20.13,9.79,26.53,27.11,29.09,7.85,1.12,16.81,1.33,22.36,9a20.5,20.5,0,0,0,21.6,9.43C1286.75,1993.1,1296.79,1995.11,1293.77,2010.09Z"/><path class="cls-2" d="M1757.05,1903.31c.29,2.34.43,4.75.83,7.2.75,4.29-2.27,11.2,4.75,11.52,6,.29,8.68-5.33,9.61-11.12,7.2-45.94,14.87-91.84,21.6-137.88,1.26-8.46,3.35-14.87,11.74-18.22,38.41-15.33,72.86-37.76,110.19-58.25-16,28.8-32,58-48.2,86.84s-32.4,57.24-48.74,85.82c-3.78,6.62-6.41,14.94-.58,19.69,5,4.14,11.81-3.06,14.8-6.91,10.8-14,21.38-9.94,33.76-2.66a676.54,676.54,0,0,1,175.61,146.37c7.2,8.35,6.19,12.78-.5,20.74-20.85,24.73-29.05,53.17-19.23,85a14.4,14.4,0,0,1-4.93,17.21c-30.49,27.36-40.17,59.76-22.32,98.06,3,6.34.43,9.5-3.24,14-25.85,31.4-24.51,70,3.89,100.44,6.3,6.81,8.75,11.6,5.22,21.6-10.55,29.74-21.6,59.48-28.8,92.52h29.27c-20.88,7.2-42.59,2.81-63.65,2.88-153.4.51-306.79-.54-460.22-1.18a56.72,56.72,0,0,1-8.79-1.34c25.56-11.3,51.3-9.57,77.19-1.08h56.88c7-5.94,15.51-5.79,23.86-5.79q131.12-.22,262.19,0c8.35,0,16.92-.25,23.73,6.05,34.66,1.29,34.48,1.33,26.13-31.86-9.9-39.39-19.29-78.92-35.21-116.46a31.2,31.2,0,0,1-.86-25.82c6.41-15,1.51-29.23-4.75-43.2-10.15-22.53-25.2-42.15-38.81-62.42-5-7.2-5.8-12,1-19.62,20.92-23.29,22.54-46.8,6.45-74-20.85-35.1-46.8-66.42-73.69-97-21.24-24.15-44.57-46.47-67-69.62.22-1.15.36-2.67,1.26-3.17A81.27,81.27,0,0,0,1757.05,1903.31Z"/><path class="cls-2" d="M1546.27,2474.49l-77.18,1.08c-88.42-1.3-176.8-2.49-265.18-4-38.77-.69-77.51-2.16-116.24-3.28,27.5,5.72,30.09-13.28,35.67-33a1315.4,1315.4,0,0,1,44.32-134.49c17.67-43.81,33.8-88.24,56.91-129.6,24.88,19.87,25.2,22.75,9.29,49.79-5.83,9.79-10.15,20.66-17.1,29.48-35.71,45.5,3.6,105,64,109.12a64.28,64.28,0,0,0,12.56,0c36-4.79,62.28,7.84,88.74,34,33.59,33.16,78.52,33.84,122.94,20.45,3.42-1,6.63-2.77,10-4,27.1-9.69,29.16-8.46,30.78,21.09C1546.63,2445.69,1546.27,2460.09,1546.27,2474.49Z"/><path class="cls-2" d="M2089.47,2474.2c4.76-15.34,9.94-30.56,14.12-46,2-7.56,4.93-12.24,13.46-9.76,38.66,11.23,74.88,3,107.71-17.42,36-22.47,60-55.66,73.23-96.38,1.76-5.4,1.58-14.14,7.52-14.9,7.85-1,8.53,8.6,11.59,13.9,24.7,42.3,37.05,88.81,45.72,136.47,2.67,14.83-1.91,23.22-18.83,20.45a21.78,21.78,0,0,0-12.6,1.8l17.79,1.8c-33.12,5.69-66.71,4-100,5.58C2196,2472.26,2142.72,2472.8,2089.47,2474.2Z"/><path class="cls-3" d="M2003.15,2474.78c9.43-29.45,18.9-58.9,28.44-88.64,13.93,5.94,25.7,11.78,38,16,9.57,3.21,9.47,7.85,6.77,16.17-6.09,18.68-10.8,37.76-16.31,56.66Z"/><path class="cls-4" d="M998.71,1391.64c-50.65-60-83.16-128.34-95-206.2-3.6-22.68-2.52-42.56,13.9-63.15,39.6-49.86,53.28-110.34,60.84-172.37,4.75-39.2,8.35-78.55,16.34-117.39,26.71-129.6,107.5-207.43,231.45-244.8a88.52,88.52,0,0,0,10.33-3c3.89-1.72,7.88-4.21,5.69-9.43a7.21,7.21,0,0,0-9-3.89c-6.44,1.34-13,2.38-19.33,4-142.27,34.89-219.31,129.39-244.55,270-8.68,48.28-12.2,97.49-21.1,145.77-10.62,57.6-35.49,108.21-83.12,144.83-35,26.92-74.56,38-118.4,28.8-56.06-11.78-90.51-64.37-75.32-115,6.7-22.36,20.09-39.6,43.2-46.8,27.11-8.43,50.58,1.9,61.92,28.11,4.07,9.36,8.72,16.74,19.62,12.6s9.54-14.4,7.42-23.18c-6.26-26.57-36.72-49.29-67.46-51-48.21-2.7-90,33.15-97.89,82.22-14.72,90.76,63.76,155.27,150.59,146.45,29.66-3,56.59-14,83-28.8,6.73,66.09,25.56,126.83,60.19,182.19,4.07,6.52,5.33,10.26-2.3,15.74-43.45,31-89.06,56-143.6,61.52-70.24,7.2-133.2-28.8-151.92-88.7-11.34-36.47-7.2-70.74,17.38-101.42,9.51-11.88,5.51-19.62-11.52-25-63.86-20.2-106.23-61.2-121.1-127.66-21.6-96.22,48.6-195.76,146.41-209.52,31.68-4.46,62.14-3,91,12,8.78,4.54,16.45,4.39,21.6-4.79s-1.48-14.79-8.1-19.22a124,124,0,0,0-76.64-21.06c-18,1-20.85-5.4-18-21.1,18-104.18,67.14-190.26,150-256.1,65.67-52.13,141.19-85.61,220.25-111.6,140.76-46.19,285.19-71.71,433.48-62.68,138.27,8.28,255.92,60.3,335,180.65,10.15,15.45,17.6,32.69,26,49.21,5.65,11.09,13.28,18.44,25.45,10.08,38.88-26.71,78.19-26,115.56.54,39.82,28.26,54.94,69.12,46.8,116.79-8.64,51-39.35,84.89-88.27,101.73-20.31,7-22.75,12-12.49,31.18,95,177.3,70,345.6-40.9,505.55-59.62,86-140.4,146.7-238.39,183.6-12.06,4.53-17.79,13.07-21.93,24.19-15.76,42-32,83.92-47.52,126-3.42,9.32-7.63,14.4-18,11.27-12-3.82-24-2-35.49.86-10.8,2.7-14.4-1-18-10.47-13-37.34-27.18-74.2-39.82-111.6-5.43-16.06-14.9-22-31.64-23.19-110.49-8-216.65-31.82-313.2-89.35-24.77-14.76-47.38-32.4-70.17-50.08-3-6.66,0-12.7,2.13-18.79s5.18-13,2.19-19c-9.9-19.87-2.19-36.65,7.64-53.42,4-7.82,11.52-9.33,19.15-11.56,22.1-6.48,30.63-28.26,19.58-48.38-4-7.2-10.8-13.14-10.33-22.4.86-7.77,2.27-15.44,3.35-23.14,1.94-13.9,8.6-23.12,23.15-26a49.75,49.75,0,0,0,30.52-20.88c8.9-12.35,18.8-12,31.25-5.8a238.39,238.39,0,0,0,87.84,25.78c62.68,4.93,118.8-11.85,166.65-52.71,49.78-42.44,78.37-96.91,83-162,4.53-63.61-13.9-120.81-56.23-169.45-43.2-49.43-97-78.87-162.65-81-72.87-2.38-135.69,23.32-182.34,80.71-64,78.69-73.44,165.38-32,257.54,6.2,13.75,4.76,22.32-6.69,32.62-31.57,28.33-32,60.73-.72,87.59,15.33,13.17,11.81,27.07,7.7,42.37a30,30,0,0,1-19.33,23.11c-22,9.65-27.18,27.65-16.38,49.75,2.84,5.8,7,11.16,5.69,18.25C1044.65,1381.85,1030.35,1391.86,998.71,1391.64Z"/><path class="cls-4" d="M2633.15,1388.37c.39,107.82-75,209.19-177.27,238.68-9.39,2.7-15.8,2.16-23.9-5.08-62.39-55.73-134.35-84.06-219.06-72.32-11.09,1.51-15.16-4.5-19.59-11.52-54-85.43-61.2-174-13.35-263.85,53.24-99.64,165.6-148.78,270.93-121.28A244.8,244.8,0,0,1,2633.15,1388.37Z"/><path class="cls-4" d="M1792.69,2165.9c-46.33-.4-55.22,5.54-71.82,46.4-10.8,26.86-51.66,36.9-82.8,20.12-7.2-3.92-14-9.18-21.1-13.64-39.2-24.37-80.78-21.85-116.35,7.63-21.31,17.68-45,23.94-72,17.82-18.61-4.25-32.4-14.11-40.46-32.11-13.5-30.49-28.62-39.31-62.07-36.22-14.94,1.37-29.66,3.6-44.53-.75-29-8.46-39.6-32.4-24.37-58.21a758.18,758.18,0,0,1,166-197.1c8.86-7.46,14.11-10.41,20.3,2.88a69.9,69.9,0,0,0,25.2,27.64c9,6,9.22,10.8,4.65,20.06a1269,1269,0,0,0-51.59,122.4c-2,5.61-3.6,11.37-5.4,17.1-1.91,6.33-1.58,12.2,5.47,15,7.63,3.06,12.89-.5,15.84-7.41,7.49-17.64,14.4-35.53,22.14-53,12.39-27.9,25.49-55.48,38-83.31,3.6-8.13,7.2-11.73,17.49-8.89,22.9,6.37,46.33,6.8,68.4-3.38,9.07-4.14,11.52,1.15,14.87,7.2,25.42,45.46,52.6,90,74.74,137.23,1.8,3.81,3.6,7.59,5.76,11.19,3.85,6.45,6.51,15.84,17,11s6.16-12.78,2.88-19.87c-14.4-31-28.44-62.14-43.81-92.59-10.51-20.85-22.61-40.9-34.81-60.81-3.82-6.26-4.75-9.61,1.69-14.4s13.07-9.9,16.27-16.52c9.36-19.3,17.82-15.66,32.08-3.82a911.72,911.72,0,0,1,157.28,169.63c10.08,14.08,25.2,28.34,14.4,48.42C1831.1,2166.51,1810.8,2166.94,1792.69,2165.9Z"/><path class="cls-2" d="M1290,1807.26c2.3-24.12,4.21-48,4.24-72,0-18-7.59-28-25-31.39-77.36-15.23-154.58-30.67-231.3-49.17-38.27-9.22-66.46-24.41-80-63.62-7.52-21.92-20.08-42.19-31-62.85-5.11-9.69-3.21-15.3,6.66-19.8a247,247,0,0,0,57.85-39c13.39-11.44,28.08-9,40.57,1.8a545.31,545.31,0,0,0,105.16,71.72,679.6,679.6,0,0,0,214.63,67.86c23.65,3.6,47.27,8,71.24,7.45,10.41-.25,15.3,5,18.44,13.64,13.39,36.54,26.53,73.15,40.35,109.51,2.74,7.2-.65,9.62-5.29,12.89a113.44,113.44,0,0,0-49.64,87.3c-.62,7.53-3.28,11.45-10.8,10.3-39.6-5.87-79.2-10.8-118.59-18.43C1283,1830.66,1294.27,1815.69,1290,1807.26Z"/><path class="cls-4" d="M1797.87,2324c-27.21-1.51-50.4,7.2-66.31,35.24-17.24,30.42-65.63,39.21-107.17,23.08-13.36-5.19-26.5-11.52-40.36-14.62-24.8-5.58-48.67,0-71.64,10.12-28.8,12.81-58.53,17-88.92,5.33a73.06,73.06,0,0,1-35.42-26.54c-14.4-20.95-34.67-27.82-59-27.43-18.44.29-36.94,3.6-55.37-1.69-38.38-10.8-47.88-32.4-28.8-66.89l1.76-3.09c29.41-52,29.41-52,88.92-49.18,10.3.47,19,3.6,22.47,14.4,16.52,51.16,95.11,79.2,148.39,38.38,39.6-30.32,71.57-31.29,113.22-4.22,54.54,35.43,109.26,14.76,135.79-45.07a17.59,17.59,0,0,1,12.6-11.37c17.1-4.18,34.6,0,51.77-3,4-.68,5.69,3.6,7.7,6.66,12.64,18.18,25.81,36,37.73,54.69,14.8,23.15,8.53,44-15.84,56.55C1836.14,2322.17,1823.15,2324.48,1797.87,2324Z"/><path class="cls-4" d="M2077.13,2128.6c-6.84-3.78-18.54,7.2-24.34-4.61a43.52,43.52,0,0,1,1.91-43.2c16.7-27.79,44.21-35.42,73.73-37.51,94.68-6.77,171.18,69.48,162.39,163.22a295.9,295.9,0,0,1-39,124.35c-30.49,51.59-78.52,70.81-136.26,54.79a407.7,407.7,0,0,1-74.77-30.2,76.06,76.06,0,0,1-26.89-20.63c-11.74-15.16-13.72-33.37-4.83-48.71,9.79-16.85,26.21-20.92,43.42-18.94,16.52,1.91,32.72,7,48.92,11.09,8.46,2.16,17.57,5.47,20.77-6.05,3-10.8-5.79-14.18-14-17.17-22.57-8.28-45.32-16.41-69.8-14.4-10,.87-14-4.1-17.5-11.63-11.77-25.48,2.16-57.6,30-67.42,20.34-7.2,41.33-6,62.13-2.34a279.21,279.21,0,0,1,29.63,7.2c7.78,2.26,15,2.26,18-6.12,3.35-9.18-2.34-14.12-10.51-17.72A200.1,200.1,0,0,0,2077.13,2128.6Z"/><path class="cls-3" d="M1254.17,1982.58c-4.65-.75-9.36-1.36-14-2.26-37.51-7.42-37.51-7.42-40.1-45,3.24-46.55,4.14-93.2,4.53-139.86,0-11.45-6.73-13.32-15.8-15.08-71.06-13.83-141.84-28.8-211-50.4-81.29-25.2-160.78-54.54-233.68-99.61a58.76,58.76,0,0,1-23.69-25.56c-10.08-21-22.53-40.76-31-62.5,1.12-8.39,7-3.85,10.44-3.2,8.86,1.69,18,3.6,26.39.46,10.8-4,11.77,2.67,12.89,10.05,44.49,43.2,100.51,66.67,156.56,89.17,112.79,45.32,230.87,71.28,350.43,90.86,12.31,2,19.47,4.76,18.72,19.7C1260.75,1827.06,1257.62,1904.82,1254.17,1982.58Z"/><path class="cls-2" d="M1913,2474.74l-309.78-.25c-.57-18.47,2.23-37-2-55.48-2.27-10,4-9.39,10.8-6.87a152.57,152.57,0,0,0,58.1,8.89c38.52-.76,69.91-13.36,89.64-48.78a30.34,30.34,0,0,1,30-16.27c28.59,1.9,56.16-1.16,81.07-17.07,10.8-6.87,11.42,4.18,12.35,8.82,7.42,35.68,20.81,69.81,26.39,105.91C1910.45,2460.7,1911.78,2467.72,1913,2474.74Z"/><path class="cls-3" d="M1757.05,1903.31c1.51,22-16.2,25.2-30.74,31.5-13.22-9.72-22.4-19-18.83-39.24,9.86-56.41,16.85-113.33,24-170.17,1.66-13,7.2-19.73,18.83-24.77,48.42-20.77,95.19-44.57,137.16-76.93a272.37,272.37,0,0,0,36.36-34.45c16.17-1.77,29.2-12.85,45.25-14.91.44,0,1,.51,1.44.9a2.73,2.73,0,0,1,0,3.06c-10.8,24-21.6,48-31.86,72-3.34,7.67-9.82,11.92-16,16.53a576.5,576.5,0,0,1-117.18,69.08c-18.32,7.92-26,18.79-28.44,38C1771.49,1817.2,1763.85,1860.18,1757.05,1903.31Z"/><path class="cls-2" d="M1788.77,1532.91c-4.43,26.24-18.33,48.2-26.32,72.43-6.7,20.41-15.12,40.28-22.14,60.62-2.16,6.2-5.22,11.24-11.16,13.11-19.69,6.15-25.63,21.6-27.79,39.6-.83,7.2-1.95,14.22-3.42,21.24-2.88,13.5-4.32,26.71-18.61,35.64-10.55,6.62-11.31,23-23.08,33.59-11.27-25.2-27.14-45-49.86-58.5-5.94-3.6-3.6-7.71-1.94-12.28q25.2-64.36,50.4-128.81c2-5,3.92-10.44,9.5-12.45A577.72,577.72,0,0,0,1788.77,1532.91Z"/><path class="cls-3" d="M1544.25,1946a90,90,0,0,1-91.29-88.69c0-.74,0-1.47,0-2.21,0-49.79,41.9-92.63,90.93-93,50.4-.36,91.08,41.18,91.3,93.6C1635.41,1904.54,1594,1945.61,1544.25,1946Z"/><path class="cls-3" d="M2295.07,1751.36c-28.8,86.4-57.89,172.58-86,259.2-4.07,12.6-9.29,14.79-20.09,9.72a29.93,29.93,0,0,0-5.15-1.55c-31.43-8.1-31.46-8.1-20.95-39.89q38.65-116.79,77.43-233.5c1.88-5.54,2.49-11.8,7.2-16C2265.59,1732,2283.33,1735.16,2295.07,1751.36Z"/><path class="cls-2" d="M840.17,1487c5.61,3.6,11.16-3.06,16.05-5.26,23-10.51,46.8,11.45,44.46,36.4-1.87,19.83,7.85,34,14.15,50.11s14.15,31.57,21.24,47.34c.4.94,0,2.23-.32,5.08-26.5-5.84-50.4-18-74.45-28.52a695.85,695.85,0,0,1-99-54c-5.58-3.6-11.08-7.2-18-6.55-1-11,8.68-14.4,15-18.86,10.23-7,13.29-13.75,6.7-24.84-3.24-5.47-3.6-3.6-2.67-10.3a43.54,43.54,0,0,1,19.91-5.15c8.61,4.54,6,.33,7.45,8.54,1.08,5.94-1.29,4,1.88,9.25,10.8,18,8.92-2.59,20.05-20.13C814.14,1467.71,837.47,1488.66,840.17,1487Z"/><path class="cls-3" d="M2233.87,1624.6c-13.39,2.92-25.2.29-29.92-15.88s3.32-28.8,20.09-30.52c70.2-6.77,130.14,17.6,183.85,61.2,12.6,10.18,9.65,21.16,2,31.32-8.21,10.8-19,13.35-31.36,4.68C2335.25,1645.08,2287.87,1626.62,2233.87,1624.6Z"/><path class="cls-2" d="M1293.77,2010.09c-.8-11.23-12.1-12-18-18,9.1-8.21,11.08-18.43,11.19-30.53.29-29.16,2.23-58.28,3.6-87.44.22-5.55,0-12.1,8.25-10.12,37.15,8.89,75.24,10.22,112.93,14.87a62.48,62.48,0,0,1,11.91,4.43A806.75,806.75,0,0,0,1293.77,2010.09Z"/><path class="cls-2" d="M1920.67,1567c-10.8,2.78-18.22,11.16-26.39,17.79a463,463,0,0,1-119.16,68.94l59.15-143.75C1869,1519.84,1901.88,1532.76,1920.67,1567Z"/><path class="cls-3" d="M2250.83,1712.51c-4.83-5.07-9.08-10-16.78-12.13-10.8-3-17.5-12.38-21-22.86-4.11-12.17,3.38-23.33,15.94-23.33,46.8,0,88.6,16.06,128,40,9.5,5.79,8.1,14.4,5.22,22-4.39,11.88-14.4,17.21-26.75,17.28-5.11,0-10.26-2.62-15.41-4.1C2295.57,1729.29,2273.47,1719.46,2250.83,1712.51Z"/><path class="cls-3" d="M2475.83,1045.94a91.34,91.34,0,0,1,36.75,6.55c14.4,5.51,28.26,12.85,36.22,25.45,9.86,15.62-7.85,25.2-13.57,36.79-14.4,29.38-15.48,28.8-46.37,17.32-.54-.22-1.12-.36-1.66-.61-12.31-5.44-31.43-3.28-36.39-14.69s1.87-26.68,3.6-40.29a106.42,106.42,0,0,0,2.19-12.31C2456.67,1049.93,2462.36,1042.62,2475.83,1045.94Z"/><path class="cls-2" d="M985.43,1442.58c2.37,6.34,1.15,9.29-1.23,11.09-18.47,13.86-33.84,31.9-56.59,39.93-7.78,2.73-11.27.18-13.9-6.12-6.55-16-12.92-32.08-19.51-48.06-2.81-6.84-.43-11.16,5.55-14.84,15.73-9.75,31.42-19.58,46.8-29.88,6.12-4.1,10.8-3.92,15.58,1.55C974.73,1410.51,988.27,1424.3,985.43,1442.58Z"/><path class="cls-3" d="M1920.67,1567c-23.51-27.21-55.3-41.79-86.69-57,12.78-39.17,16.06-40.36,50.4-20.41a328.14,328.14,0,0,1,82.26,68.72c5.19,5.87,11.27,11.74,3.6,20-9.79,1.19-18.32,5.91-26.89,10.3-6.66,3.38-13.07,5.29-19.87.65C1926.5,1581.33,1930.53,1573.19,1920.67,1567Z"/><path class="cls-1" d="M1067.47,1359.42a151.55,151.55,0,0,1-7.2,16.35c-4.68,8-7.2,14.4-1.37,24.19,9.72,16.88-1,33-6.62,49-7.2-10.12-14.62-1-19.26,1.58-14.4,8.14-24.34,3.6-34.27-7-10.55-11.23-9.22-23.51-3.6-36,2.44-5.29,7.2-9.61,3.6-16,11.12-4.9,20.16-14.87,34.34-12.17,7,1.33,7.52-6.37,10.12-10.8,3.38-5.62,6.37-11.49,9.5-17.25,2.59-4,3.6-10.44,11-6.76S1069.92,1353.59,1067.47,1359.42Z"/><path class="cls-3" d="M819.07,1456.59c8.78,8.46,12.89,21.27,21,30.42,3.6,4.14-65.45,20.23-68.58,22.28a155.28,155.28,0,0,0-27.4,22.43c-6.23,4.68-5.58,11.3-5.11,18-2.16-2.45-5.76-7.2-6.23-7-14.69,8.85-29.09.32-43.49-.33-8-9.47-2.08-15.12,2.45-20.16C704.23,1495.9,775.11,1457.85,819.07,1456.59Z"/><path class="cls-3" d="M2250.83,1712.51c8.31-1,16.74-1.76,24.58,1.91a203.56,203.56,0,0,0,44.57,14.87c-18-3.6-20.91,9.83-24.95,22l-47.44-22Z"/><path class="cls-3" d="M832.35,1491.69c-4.6-7.2-8.56-28-13.17-35,6-2.45,12-5.11,18-7.2,25.2-9.11,28.22-7.49,36.65,20.27C894.45,1496.55,844.92,1484.49,832.35,1491.69Z"/><path class="cls-2" d="M1686.35,1842.4c-2.2,12.13-4.43,25.2-6.92,37.91-.79,4,1.59,11.27-6.26,9.68-5.69-1.15-12.1-4.32-11.66-11.7a225.81,225.81,0,0,1,4-33.59c1.62-7.66,8.93-11.77,16-12.63C1687.75,1831.31,1685.45,1837.9,1686.35,1842.4Z"/><path class="cls-1" d="M1081.11,1261.29a61.78,61.78,0,0,1,2-12.39c4.79-12.45,1-19.4-10.26-27.46-31.68-22.65-31-71,1.66-93.89,12.64-8.82,11.3-14.58,5.65-26.32-67.5-140,8.46-304.45,156.6-340.2,129.28-31.17,264,60.52,284,193.25,19.55,130.1-63.58,249.91-189.72,273.6-55.33,10.37-107.5.65-156.35-26.35-9.65-5.33-13.46-4.5-18.9,4.86a49,49,0,0,1-37.51,25.2c-10.8,1.11-14.18,5.36-15.59,15s-4.35,19.84-6.66,29.74c-2.48,3.24-2.37,9.61-9.32,7.2a9.11,9.11,0,0,1-6.84-10.48C1080.14,1269,1079.17,1264.89,1081.11,1261.29Z"/><path class="cls-1" d="M1806.05,912.48a14.15,14.15,0,0,1-8.54,13.36c-7.41,3.6-13.6.72-19.62-4.32-18.43-15.34-39.06-22.32-63.32-16.92-23.26,5.15-39.6,19.15-51.37,38.88-6,10.12-12.46,19.33-25.2,11.48-11.41-7.2-7.2-17.35-2.13-26.89,30.82-58.17,107.61-75.6,156.39-35.1C1798.74,898.3,1805.18,903.84,1806.05,912.48Z"/><path class="cls-1" d="M1817.78,699.69a76,76,0,0,1,2.31-12.89,12.27,12.27,0,0,1,14.48-9.57l.6.14c7.2,1.4,9.76,6.48,9.47,13.17a73.37,73.37,0,0,0,7.2,34.82c13.68,29.34,40.39,37.76,67.53,20.7,7.2-4.47,13.29-6.09,19.26,0,7.2,7.2,3,14.4-2.3,20.66-21.6,26-70.27,23.44-95.87-5.11C1825.34,745.12,1818.14,725.25,1817.78,699.69Z"/><path class="cls-1" d="M1081.11,1261.29c3.1,6.87-6,25.74,14.87,15.08-.83,6.23,4,9.25,7.2,13.36,19.77,24.37,8.21,57-22.61,62.57a20.23,20.23,0,0,0-13.1,7.2c-1-10-3.6-17.5-14.87-7.85,1.91-7.2-4.89-10.23-7.88-15-13.61-21.6-5.22-49.68,18.9-57A22.87,22.87,0,0,0,1081.11,1261.29Z"/><path class="cls-1" d="M1546.27,1796.68c30.35.61,56.7,28.8,55.87,59.4s-28.37,58-58.28,56.84a56.54,56.54,0,0,1-55.23-57.85c0-.4,0-.79,0-1.19C1489.43,1822.24,1515.78,1796.07,1546.27,1796.68Z"/><path class="cls-4" d="M1035.07,1423.54c-1.15,8.71-5.72,15-15.84,15-8.46,0-13.82-4.53-12.74-13.39s5.22-16.13,15.66-16.09C1031,1409.07,1035.07,1414.36,1035.07,1423.54Z"/><path class="cls-2" d="M1121.47,1125.1c.43-17.21-12.53-28.8-19-43C1047.13,961,1117.37,818,1245.71,788.64c83.08-19,178.41,23.76,220,99,19,34.42,31.39,70.09,29.38,109.33-6.16,120.89-96.41,208.59-211.61,206.39a189.85,189.85,0,0,1-117.83-42.34c-3.6-3-7.67-12.45-15-3.6A101.1,101.1,0,0,0,1121.47,1125.1Z"/><path class="cls-2" d="M1121.47,1125.1c18.36,2.92,27.58,14.08,29,32.4-8.72,7.78-12.75,18.65-18.72,28.26-10.16,16.45-29.78,20.34-43.2,9.36-14.4-11.95-11.81-37.62,6.76-42.16C1112.29,1148.68,1116.36,1137.59,1121.47,1125.1Z"/><path class="cls-5" d="M1089.5,1315.61c-1.4,7.63-4.93,13.83-13.61,13.5a12,12,0,0,1-12.55-11.39c0-.33,0-.66,0-1,0-8,4.39-14.4,12.53-14.4S1089.07,1307,1089.5,1315.61Z"/><path class="cls-2" d="M1544.94,1891.79a40,40,0,0,1-38.27-37.4c-.36-19.44,19.62-38.67,39.82-38.27,18.36.36,36,20.48,35.56,40.28a35.35,35.35,0,0,1-35.27,35.44C1546.17,1891.84,1545.55,1891.82,1544.94,1891.79Z"/><path class="cls-4" d="M1449.79,994.89c.43,88.38-71.39,163.33-157.21,164.09-91.37.82-163.84-72-164.13-164.6-.28-88.23,71.79-161.38,159.23-161.67C1377.83,832.35,1449.32,903.92,1449.79,994.89Z"/><line class="cls-6" x1="2433.42" y1="1275.9" x2="2525.18" y2="1476.32"/><line class="cls-6" x1="2421.65" y1="1283.5" x2="2255.43" y2="1398.88"/><circle class="cls-2" cx="2431.76" cy="1282.35" r="51.77"/><circle class="cls-2" cx="2520.47" cy="1472.46" r="51.77"/><circle class="cls-2" cx="2255.18" cy="1400.25" r="51.77"/><path class="cls-7" d="M1302.3,1159.92c-70.91-1.14-116.54-27.47-149.61-75-19.11-27.48-27.14-58.35-26.9-90.56.3-42.77,14.8-81.09,47.15-112.16a267.71,267.71,0,0,1,22.06-19.3c28.62-22,61.65-31,97.81-30.09,28.1.71,54.19,7.6,78.42,22.4,49.47,30.22,75.35,73.76,79.87,128.13,5.34,64-20.42,115.89-76.28,152.67C1350.36,1152.08,1322.57,1160.78,1302.3,1159.92Z"/><path class="cls-2" d="M1340.67,1004.57c0,13.79.22,27.58,0,41.37-.39,18-10.8,29.34-26.82,29.66s-26.42-9.9-27-27.32q-1.47-43.2-.75-86.4c.32-18,10.37-28,25.85-28.8,16.34-.62,27.07,9.36,28.26,28.08.9,14.4.18,28.8.18,43.2Z"/></svg>